<svg preserveAspectRatio="none" width="100%" height="100%" overflow="visible" style="display: block;" viewBox="0 0 31 31" fill="none" xmlns="http://www.w3.org/2000/svg">
<g id="&#230;&#168;&#161;&#229;&#158;&#139;icon">
<circle id="Ellipse 3" cx="15.5" cy="15.5" r="15.5" fill="var(--fill-0, white)" fill-opacity="0.1"/>
<path id="Union" d="M15.5 9C15.7761 9 16 9.22386 16 9.5V15H21.5C21.7761 15 22 15.2239 22 15.5C22 15.7761 21.7761 16 21.5 16H16V21.5C16 21.7761 15.7761 22 15.5 22C15.2239 22 15 21.7761 15 21.5V16H9.5C9.22386 16 9 15.7761 9 15.5C9 15.2239 9.22386 15 9.5 15H15V9.5C15 9.22386 15.2239 9 15.5 9Z" fill="var(--fill-0, #D9D9D9)"/>
</g>
</svg>
