<svg preserveAspectRatio="none" width="100%" height="100%" overflow="visible" style="display: block;" viewBox="0 0 20 20" fill="none" xmlns="http://www.w3.org/2000/svg">
<g id="Frame 7308" clip-path="url(#clip0_0_4)">
<path id="Vector 1" d="M28.1967 14.5813C27.9693 14.3877 27.6919 14.1202 27.4789 13.923C27.412 13.8611 27.4686 13.8633 27.423 13.8196C27.3333 13.7344 27.2317 13.6799 27.1418 13.5983C27.112 13.5712 27.183 13.5566 27.1508 13.529C26.9732 13.3781 26.7807 13.2734 26.5826 13.1514C25.6093 12.5453 24.4637 12.2937 23.2655 12.2736C23.2622 12.2735 23.2588 12.2734 23.2555 12.2734C22.8852 12.2631 22.4132 12.2965 22.0301 12.4315C21.9857 12.447 22.0256 12.4834 22.0181 12.4896C21.9015 12.5852 21.9189 12.4829 21.8266 12.4993C21.4629 12.5652 21.074 12.7203 20.751 12.8854C20.6141 12.9559 20.7926 12.9752 20.63 12.993C20.6187 12.9944 20.634 12.9335 20.5932 12.9466C20.4994 12.9766 20.3401 13.0615 20.2701 13.0909C20.1354 13.147 20.1156 13.1572 19.9922 13.2168C19.8222 13.2985 19.6129 13.3752 19.4361 13.4753C19.3988 13.4966 19.472 13.5163 19.4144 13.5544C19.357 13.5924 19.1904 13.6701 19.1302 13.6865C19.0699 13.703 19.076 13.6561 19.0622 13.6528C18.9488 13.6237 18.8041 13.8117 18.7806 13.8258C18.3517 14.0825 17.9366 14.2077 17.5016 14.3873C17.1707 14.5241 16.8183 14.6761 16.4897 14.7784C16.0996 14.8994 15.756 14.9627 15.3679 15.0468C15.3266 15.0555 15.3868 15.1036 15.3361 15.1144C14.7993 15.2276 14.2491 15.2795 13.7022 15.2424C13.6475 15.2385 13.7177 15.1866 13.6632 15.1796C13.3252 15.1412 12.8254 14.9974 12.5991 15.1922C12.3729 15.1548 12.1045 15.0984 11.9157 15.0112C11.7964 14.9553 11.9306 14.9275 11.7714 14.916C11.7354 14.9131 11.7696 14.9719 11.7161 14.9637C11.4867 14.928 11.2581 14.8475 11.0328 14.8024C10.987 14.7933 10.9854 14.8393 10.9704 14.8428C10.9521 14.8467 10.9334 14.8467 10.9146 14.8436C10.8014 14.8252 10.6964 14.7011 10.6674 14.6824C10.4025 14.5153 10.1948 14.4382 9.94765 14.2973C9.89048 14.2641 9.92877 14.3547 9.87244 14.3243C9.58102 14.1652 9.3016 13.9639 9.06685 13.745C9.01474 13.6961 9.09746 13.6971 9.07433 13.6717C8.97317 13.5606 8.88707 13.6133 8.79104 13.5046C8.7709 13.4818 8.81204 13.4599 8.81097 13.4527C8.79511 13.3407 8.67016 13.3712 8.65188 13.3581C8.42237 13.1956 8.36993 12.9923 8.17012 12.8172C8.14606 12.7961 8.15857 12.8859 8.09326 12.8241C7.65821 12.4129 7.24907 11.9406 6.86988 11.5032C6.81053 11.4351 6.88518 11.4509 6.88477 11.4434C6.874 11.3214 6.75688 11.3564 6.73332 11.3393C6.54764 11.2008 6.44548 10.9913 6.24487 10.99C5.89883 10.6755 5.50422 10.4263 5.08047 10.2973C4.68305 10.1763 4.20693 10.3132 3.7409 10.4562C3.72905 10.46 3.72808 10.4031 3.70437 10.4111C3.42558 10.5077 3.50633 10.5621 3.38415 10.7366C3.35416 10.7802 3.16279 10.7476 3.14751 10.7463C3.0901 10.7411 3.09552 10.6489 3.07848 10.6512C2.93721 10.6738 3.08302 10.8869 2.92582 10.9783C2.9208 10.9808 2.91701 10.928 2.90175 10.9315C2.85421 10.9422 2.82377 10.982 2.77566 10.9917C2.66557 11.0135 2.5654 10.9276 2.46631 11.0739C2.4536 11.0929 2.55759 11.2001 2.41471 11.2807C2.35753 11.3126 2.11676 11.4673 2.04289 11.5032C1.97044 11.5381 1.99143 11.4689 1.98554 11.4703C1.7695 11.534 1.82468 11.4683 1.6826 11.4496C1.54019 11.4315 1.68476 11.5992 1.66043 11.6437C1.6365 11.6879 1.47408 11.7307 1.43091 11.7371C1.38793 11.7433 1.41347 11.6915 1.37835 11.7019C1.14844 11.77 1.35146 11.8479 1.30591 11.9181C1.19771 12.0844 0.992374 12.0218 0.844336 12.0954C0.804121 12.1154 0.854673 12.1275 0.822647 12.1515C0.694807 12.2465 0.589832 12.2517 0.459768 12.3849C0.438137 12.407 0.365034 12.565 0.247213 12.5514C0.230495 12.5493 0.24239 12.4952 0.179926 12.5216C0.0861473 12.5613 -0.0735817 12.6438 -0.160885 12.7087C-0.225327 12.7567 -0.112793 12.7698 -0.210667 12.8012C-0.25421 12.815 -0.201069 12.7405 -0.281197 12.7692C-0.360394 12.7977 -0.54574 12.901 -0.616983 12.9401C-0.687832 12.9794 -0.625019 13.0033 -0.629181 13.0094C-0.654779 13.0453 -0.781603 13.1389 -0.794058 13.145C-1.41163 13.4687 -2.03413 13.6477 -2.66899 13.8807C-2.71906 13.8988 -2.66921 13.939 -2.67669 13.9423C-2.84502 14.0179 -2.74923 13.8401 -2.88367 13.831C-2.83533 13.9295 -2.91254 13.9327 -3.03294 13.9781C-3.09105 14 -3.04768 14.0316 -3.05198 14.0372C-3.12484 14.1228 -3.20826 14.0587 -3.22802 14.0463C-3.30171 14.0009 -3.349 14.0871 -3.39865 14.0559C-3.4477 14.0248 -3.36945 13.945 -3.48776 13.9721C-3.51312 14.0173 -3.40215 14.0969 -3.49036 14.1327C-3.82488 14.2754 -4.50083 14.2751 -4.78323 14.2681C-4.87108 14.2684 -4.94076 14.268 -5 14.2673C-5.13587 14.2655 -5.21519 14.2637 -5.32705 14.2492C-5.62174 14.2071 -5.52148 14.2879 -5.70984 14.3051C-5.8973 14.3187 -5.7867 14.1446 -5.80788 14.1022C-5.82912 14.0595 -5.8629 14.0963 -5.89206 14.0702C-5.92074 14.044 -5.84848 14.0271 -5.92148 14.0082C-5.99412 13.9903 -6.20304 14.0233 -6.24089 14.0569C-6.31516 14.1306 -6.24301 14.243 -6.43558 14.1645C-6.4464 14.1599 -6.39835 14.1216 -6.4402 14.1063C-6.7785 13.9844 -7.12441 13.8523 -7.42098 13.6586C-7.46179 13.6318 -7.39814 13.6043 -7.42129 13.5882C-7.65551 13.4186 -7.61035 13.547 -7.80316 13.5472C-7.70018 13.4519 -7.73134 13.3396 -7.90692 13.2125C-8.0112 13.1353 -8.0283 13.1953 -8.12201 13.1752C-8.15044 13.1691 -8.198 13.0787 -8.22845 13.0892C-8.32921 13.1224 -8.32683 13.2598 -8.47754 13.0757C-8.4839 13.0676 -8.42687 13.0518 -8.45118 13.0263C-8.6059 12.8608 -8.6904 12.9109 -8.87372 12.7453C-9.01713 12.6156 -9.207 12.3276 -9.34518 12.1631C-9.23067 12.0637 -9.39379 11.9377 -9.52644 11.9485C-9.61784 11.8437 -9.72478 11.7388 -9.80769 11.6334C-9.83636 11.5971 -9.7839 11.588 -9.78457 11.5805C-9.79438 11.4643 -9.90954 11.4937 -9.93336 11.4759C-10.1897 11.2796 -10.3393 11.0468 -10.6317 10.9307C-10.6424 10.9266 -10.7157 11.003 -10.7388 10.8947C-10.7405 10.8873 -10.6297 10.9035 -10.7473 10.8209C-10.8616 10.7397 -11.0738 10.554 -11.2773 10.5202C-11.3257 10.5114 -11.4704 10.544 -11.5356 10.4506C-11.5446 10.4377 -11.5212 10.4139 -11.5334 10.3919C-11.5741 10.3211 -11.6381 10.412 -11.6817 10.3044C-11.7221 10.1979 -11.8627 10.0869 -12.0778 10.1103C-12.0849 10.1109 -12.1474 10.1849 -12.2111 10.1735C-12.317 10.1542 -12.4515 10.1206 -12.5627 10.1124C-12.6152 10.1086 -12.5856 10.1634 -12.5948 10.1637C-12.7425 10.1654 -12.8663 10.1602 -13 10.1528C-13.1732 10.1434 -13.341 10.1298 -13.5545 10.1399C-13.6232 10.1425 -13.8049 10.2376 -13.9428 10.2056C-14.0959 10.1723 -13.9959 9.88552 -14.3227 10.0214C-14.4562 10.0788 -14.5296 10.4347 -14.808 10.3505C-15.2371 10.5412 -15.6706 10.6505 -16.0491 10.9422C-16.0663 10.9554 -16.0767 11.0677 -16.119 11.0923C-16.1821 11.1289 -16.2384 11.1143 -16.2841 11.1404C-16.4767 11.2496 -16.6204 11.3957 -16.7913 11.5182C-16.8566 11.5655 -16.8613 11.5134 -16.9389 11.5709C-17.0163 11.629 -17.0285 11.7129 -17.147 11.7754C-17.236 11.8223 -17.3873 11.7961 -17.4964 11.8754C-17.4224 11.9661 -17.4905 12.0229 -17.5861 12.1553C-17.6043 12.1808 -17.5524 12.1877 -17.5596 12.2013C-17.588 12.257 -17.6503 12.2702 -17.6739 12.3252C-17.6797 12.3385 -17.6522 12.3674 -17.6553 12.3798C-17.6812 12.4873 -17.8528 12.5342 -17.8822 12.5424C-17.9956 12.5743 -17.9921 12.6465 -18.062 12.6873C-18.132 12.7285 -18.0744 12.6232 -18.1466 12.6804C-18.2987 12.802 -18.4551 12.9914 -18.5796 13.1399C-18.6297 13.2001 -18.5546 13.1926 -18.5609 13.202C-18.65 13.3317 -18.7963 13.4271 -18.7644 13.5602C-19.052 13.4857 -18.7998 13.6486 -18.9805 13.8034C-18.9943 13.8149 -19.1133 13.758 -19.0881 13.6908C-19.0614 13.6215 -18.9679 13.5632 -18.932 13.4671C-18.9225 13.4428 -18.9402 13.2672 -18.9341 13.2476C-18.8899 13.0984 -18.7267 13.206 -18.7139 13.2068C-18.5735 13.2153 -18.5706 13.007 -18.5509 12.9701C-18.4563 12.7944 -18.327 12.6903 -18.2387 12.5512C-18.181 12.461 -18.2657 12.3659 -18.2038 12.3067C-17.9993 12.1138 -17.8079 12.1742 -17.7201 11.8814C-17.7009 11.8194 -17.8371 11.7545 -17.6115 11.6982C-17.5968 11.6941 -17.4182 11.6696 -17.3927 11.5657C-17.3895 11.5525 -17.4159 11.5218 -17.4069 11.5098C-17.3461 11.4299 -17.2749 11.413 -17.2019 11.335C-17.1284 11.2567 -17.0394 11.1591 -16.9332 11.0981C-16.8689 11.0609 -16.7478 11.0673 -16.7088 11.0627C-16.5986 11.0503 -16.5593 10.9192 -16.4724 10.9393C-16.3859 10.9603 -16.4313 11.1064 -16.2763 11.0565C-16.3278 10.9647 -16.3741 10.8663 -16.4222 10.7718C-16.1158 10.5831 -15.7898 10.4448 -15.4619 10.2938C-15.4213 10.2751 -15.4861 10.2419 -15.4428 10.2205C-15.258 10.1304 -15.0781 10.1037 -14.8815 10.0209C-14.7313 9.95732 -14.5713 9.84845 -14.4056 9.79281C-14.2738 9.88348 -14.0348 9.79112 -13.8468 9.77573C-13.7813 9.77006 -13.7812 9.80261 -13.7346 9.80703C-13.5587 9.82464 -13.6508 9.72915 -13.6048 9.70711C-13.4028 9.61634 -13.3678 9.85399 -13.1324 9.84035C-13.1242 9.83994 -13.0545 9.78219 -13 9.74199C-12.9719 9.72145 -12.9485 9.70529 -12.941 9.70266C-12.8001 9.65274 -12.9182 9.74736 -12.8321 9.75878C-12.6773 9.78102 -12.573 9.81732 -12.3856 9.79948C-12.3328 9.79384 -12.192 9.73106 -12.0957 9.81056C-12.0834 9.82089 -12.0982 9.86134 -12.0877 9.86568C-11.9014 9.94189 -11.8681 9.81519 -11.7409 9.79917C-11.6142 9.78321 -11.4629 9.92672 -11.4377 9.96396C-11.3689 10.0596 -11.5164 9.96834 -11.5242 9.97373C-11.6063 10.0321 -11.4764 10.057 -11.3876 10.0968C-11.4188 10.2237 -11.2917 10.2643 -11.2949 10.1385C-11.2961 10.1242 -11.3713 10.1088 -11.3876 10.0968C-11.2662 10.004 -11.1027 10.05 -11.004 10.2307C-10.9582 10.3165 -11.0504 10.3391 -10.8358 10.4277C-10.738 10.4707 -10.7286 10.3723 -10.6336 10.4006C-10.415 10.4667 -10.2321 10.7042 -10.0571 10.8352C-9.99264 10.8833 -10.0207 10.7951 -9.97538 10.8271C-9.85497 10.9127 -9.78555 11.0266 -9.66849 11.1132C-9.65781 11.1211 -9.64512 11.0617 -9.61218 11.0927C-9.36239 11.3279 -9.19025 11.5655 -8.96027 11.8162C-8.84898 11.938 -8.63151 12.1303 -8.52034 12.2513C-8.32911 12.4627 -8.12575 12.7524 -7.92687 12.8848C-7.79755 12.9711 -7.79325 12.9081 -7.72068 12.9185C-7.58232 12.9376 -7.46778 13.1552 -7.44916 13.1872C-7.4489 13.1886 -7.56645 13.1294 -7.52118 13.189C-7.51533 13.2576 -7.45037 13.1868 -7.44916 13.1872C-7.43861 13.2102 -7.21828 13.3467 -7.16525 13.3594C-7.13804 13.3669 -7.13038 13.3162 -7.11672 13.3208C-6.78946 13.4321 -6.46416 13.5263 -6.12671 13.6185C-6.12073 13.6208 -6.14101 13.6724 -6.12666 13.6769C-5.93176 13.7404 -5.78014 13.693 -5.61501 13.6701C-5.44297 13.6473 -5.3102 13.6666 -5.21254 13.7635C-5.15092 13.7599 -5.07574 13.7676 -5 13.7784C-4.91872 13.7906 -4.83915 13.8065 -4.78155 13.8177C-4.6719 13.8387 -4.6626 13.731 -4.65344 13.7286C-4.3649 13.6432 -4.19262 13.6846 -3.88696 13.6434C-3.74189 13.6244 -3.46074 13.5485 -3.31007 13.4966C-3.19103 13.4563 -3.11146 13.4599 -3.00451 13.4118C-2.99007 13.4053 -3.01874 13.3645 -3.01468 13.3614C-2.90794 13.2701 -2.93337 13.3984 -2.90167 13.4104C-2.78657 13.4531 -2.71501 13.4729 -2.56715 13.3844C-2.53258 13.364 -2.48309 13.1694 -2.42184 13.1359C-2.34146 13.0925 -2.35217 13.1605 -2.26841 13.1125C-2.26125 13.1084 -2.27619 13.0749 -2.22106 13.0547C-1.96539 12.9609 -1.68303 12.8593 -1.42607 12.731C-1.39101 12.7136 -1.46152 12.6829 -1.41148 12.657C-1.17669 12.5352 -0.917892 12.4021 -0.676636 12.3001C-0.617264 12.2752 -0.63257 12.3304 -0.614513 12.3343C-0.504057 12.3572 -0.44931 12.2035 -0.433233 12.1919C-0.0430679 11.91 0.320456 11.8005 0.716379 11.4974C0.736908 11.4814 0.853296 11.2724 0.983456 11.3058C0.992393 11.3079 1.123 11.3438 1.15583 11.2414C1.1578 11.2351 1.08132 11.2225 1.1691 11.1728C1.25688 11.123 1.37322 11.0076 1.52201 10.9801C1.56946 10.9711 1.70766 11.0017 1.77812 10.8626C1.7826 10.8531 1.85855 10.5917 1.98616 10.6591C2.00714 10.6702 2.06664 10.7882 2.16597 10.6473C2.18483 10.6202 2.12266 10.624 2.18086 10.5666C2.26767 10.48 2.43038 10.4228 2.52934 10.2969C2.54625 10.2749 2.60324 10.1382 2.71637 10.1526C2.73405 10.1549 2.73204 10.2065 2.77632 10.1873C2.98901 10.0953 3.19482 9.95383 3.42737 9.88133C3.51217 9.85487 3.50038 9.93787 3.59014 9.91968C3.67717 9.90221 3.85626 9.8519 3.93514 9.79202C4.01571 9.73144 3.87743 9.65586 4.02254 9.60168C4.38158 9.47268 4.83601 9.40846 5.30172 9.56496C5.57553 9.6603 5.82489 9.79319 6.05672 9.93517C6.13791 9.98585 6.09227 9.90954 6.21138 9.98367C6.66113 10.2549 7.2965 10.8058 7.51365 11.1545C7.6895 11.4325 7.36915 11.1804 7.52033 11.3753C7.59356 11.4697 7.77563 11.4691 7.79863 11.487C8.02036 11.6573 8.10923 11.836 8.29158 11.9987C8.32936 12.0323 8.33331 11.9596 8.36501 11.9886C8.47295 12.0865 8.56294 12.2119 8.66376 12.3057C8.70918 12.3477 8.72967 12.3106 8.76772 12.3523C8.85932 12.4518 8.93307 12.5459 9.00311 12.6628C9.00957 12.6735 8.91575 12.656 8.98776 12.725C9.10389 12.8358 9.22929 12.9966 9.39571 13.0823C9.44531 13.1075 9.50477 13.0363 9.55534 13.1582C9.56603 13.1834 9.47292 13.2539 9.63898 13.2587C9.66761 13.2611 9.9222 13.2861 9.9646 13.4147C9.97562 13.4489 9.98684 13.5664 10.0491 13.5887C10.0576 13.5913 10.0553 13.5306 10.1024 13.5545C10.2673 13.6388 10.4327 13.7376 10.6073 13.805C10.6539 13.8227 10.6101 13.7442 10.6783 13.7715C10.8398 13.836 11.0284 13.9212 11.1961 13.9895C11.2255 14.0014 11.2541 14.0129 11.2814 14.024C11.3535 14.0532 11.2896 14.078 11.2935 14.0842C11.3581 14.1842 11.4392 14.1009 11.4691 14.1035C11.6537 14.12 11.7801 14.2026 11.9487 14.2285C11.995 14.2356 11.9735 14.1805 11.9835 14.1783C12.0859 14.1576 11.9974 14.2279 12.0546 14.2503C12.2145 14.3132 12.4094 14.3445 12.5781 14.3625C12.6416 14.3692 12.5784 14.3029 12.6355 14.3095C12.9719 14.3465 13.3139 14.3756 13.6432 14.4074C13.7051 14.4134 13.6663 14.4571 13.6792 14.467C13.7699 14.5369 13.8976 14.4381 13.9278 14.4277C14.0633 14.3809 14.1178 14.4162 14.2371 14.4001C14.8201 14.3238 15.5409 14.1997 16.0876 14.0454C16.7985 13.8467 17.3554 13.6571 18.01 13.3431C18.0515 13.3231 17.9849 13.29 18.0203 13.2721C18.4794 13.0425 18.946 12.8329 19.4122 12.5838C19.4503 12.5636 19.3702 12.5417 19.4306 12.5076C19.5562 12.4363 19.7197 12.3596 19.86 12.3119C19.9282 12.2886 19.8621 12.3727 19.9303 12.3484C20.0885 12.2924 20.2532 12.2197 20.4076 12.1405C20.4731 12.1069 20.3487 12.1009 20.4358 12.0612C21.0329 11.7902 21.658 11.5346 22.3742 11.4719C22.4233 11.4679 22.4842 11.5728 22.5808 11.5358C22.5837 11.5032 22.5778 11.4663 22.5762 11.4322C22.8022 11.3944 23.0324 11.3743 23.2655 11.375C24.0209 11.3773 24.7822 11.48 25.5311 11.6904C25.5717 11.7019 25.5174 11.6238 25.5963 11.646C26.0524 11.7755 26.4978 11.9325 26.9005 12.2093C26.9403 12.2369 26.8694 12.3192 26.9993 12.3714C27.0228 12.3801 27.2119 12.4716 27.2702 12.4806C27.2783 12.4815 27.2709 12.4188 27.3301 12.4529C27.6735 12.6524 28.0026 12.9056 28.2826 13.174C28.3277 13.2175 28.2427 13.2164 28.2744 13.2476C28.498 13.4678 28.7756 13.6647 28.9553 13.9031C29.0747 14.0627 28.9582 14.0781 28.9694 14.215C28.9711 14.2344 29.0548 14.3198 29.0222 14.3615C28.9403 14.4664 28.7977 14.5287 28.7153 14.6453C28.6974 14.6701 28.832 14.7582 28.7142 14.7442C28.7061 14.743 28.6084 14.6803 28.5712 14.6788C28.5454 14.6775 28.5328 14.74 28.4893 14.7281C28.4458 14.7162 28.446 14.6539 28.3813 14.6274C28.3166 14.6015 28.2948 14.6644 28.1967 14.5813ZM-4.2818 13.8938C-4.1739 13.9328 -4.18243 13.7455 -4.2852 13.8025C-4.29016 13.8054 -4.28731 13.8919 -4.2818 13.8938ZM-15.7233 10.5795C-15.5606 10.5895 -15.524 10.4393 -15.6432 10.4255C-15.7636 10.413 -15.7735 10.5772 -15.7233 10.5795ZM-16.926 11.4146C-16.7569 11.3677 -16.8932 11.1389 -17.0037 11.2895C-17.0102 11.2983 -16.936 11.4175 -16.926 11.4146ZM28.605 13.9036C28.6045 13.9064 28.6662 13.9671 28.6694 13.9667C28.7438 13.9549 28.6198 13.833 28.605 13.9036ZM-17.9546 12.421C-17.8943 12.4101 -17.8196 12.2769 -17.8961 12.2903C-17.9583 12.3015 -18.0305 12.4351 -17.9546 12.421ZM0.792273 12.0204C0.795187 12.0218 0.848589 11.9914 0.839172 11.9787C0.808792 11.938 0.743925 11.9953 0.792273 12.0204ZM-19.4571 14.3318C-19.255 14.0308 -18.952 13.9823 -19.1858 14.2861C-19.2278 14.342 -19.1604 14.1206 -19.2268 14.1854C-19.3458 14.3011 -19.2884 14.466 -19.4343 14.5702C-19.4608 14.5874 -19.4709 14.3502 -19.457 14.331C-19.4571 14.3313 -19.4571 14.3315 -19.4571 14.3318ZM-4.19675 14.1101C-4.19445 14.1124 -4.10976 14.1041 -4.10806 14.1013C-4.07054 14.0367 -4.23953 14.0533 -4.19675 14.1101ZM3.92514 10.3235C3.93231 10.3252 4.11417 10.2646 4.11759 10.2596C4.18368 10.1327 3.80625 10.2574 3.92514 10.3235ZM-9.3445 12.1579C-9.45131 12.13 -9.53107 12.0538 -9.52621 11.9489C-9.46665 12.0189 -9.40461 12.0872 -9.3445 12.1579Z" fill="white"/>
<path id="Vector 2" d="M-20.6626 15.1082C-20.2897 14.8885 -19.7816 14.6443 -19.3872 14.4736C-19.2637 14.42 -19.3099 14.4802 -19.2228 14.4442C-19.0572 14.3761 -18.9074 14.2845 -18.7431 14.2219C-18.6875 14.2009 -18.731 14.2802 -18.6732 14.257C-18.3547 14.129 -18.0709 13.9808 -17.7503 13.8471C-16.174 13.2051 -14.6176 12.5644 -12.8549 12.2901C-12.5981 12.2547 -12.2981 12.2344 -12 12.2442C-11.6272 12.2556 -11.2538 12.314 -10.9191 12.3809C-10.8484 12.395 -10.8794 12.3404 -10.8652 12.3399C-10.6397 12.3368 -10.7331 12.4094 -10.6022 12.4598C-10.0826 12.6636 -9.54138 12.9281 -9.08307 13.168C-8.8885 13.2703 -9.03364 13.081 -8.86788 13.2369C-8.85643 13.2476 -8.92914 13.2616 -8.88003 13.2966C-8.7684 13.3755 -8.54516 13.5028 -8.45895 13.5622C-8.2929 13.6764 -8.26471 13.6943 -8.10597 13.7978C-7.88952 13.9397 -7.64714 14.1293 -7.41064 14.2683C-7.36005 14.2978 -7.39802 14.2139 -7.31509 14.2569C-7.23259 14.3001 -7.02722 14.4339 -6.96274 14.4864C-6.89847 14.5393 -6.94881 14.5548 -6.94099 14.5701C-6.87778 14.6985 -6.57947 14.747 -6.54675 14.7608C-5.95371 15.033 -5.4648 15.2969 -4.88115 15.353C-4.75978 15.3638 -4.63684 15.3653 -4.51257 15.3572C-4.18802 15.3362 -3.85881 15.2491 -3.55864 15.1531C-3.06452 14.9928 -2.64398 14.8203 -2.18366 14.573C-2.13497 14.5466 -2.21979 14.525 -2.16067 14.4927C-1.53514 14.1502 -0.918571 13.7787 -0.266916 13.4495C-0.201488 13.4166 -0.257372 13.5084 -0.19055 13.4782C0.21789 13.2889 0.885567 13.0528 1.04004 12.7399C1.32449 12.6179 1.68539 12.487 1.96999 12.4542C2.15425 12.4339 1.99812 12.5325 2.20592 12.4562C2.25434 12.4397 2.1785 12.406 2.25275 12.3852C2.56361 12.2985 2.92731 12.2818 3.26296 12.3048C3.3314 12.3095 3.32016 12.2635 3.34104 12.2588C3.36151 12.2547 3.38322 12.2534 3.4056 12.2545C3.56643 12.2598 3.74627 12.3968 3.79019 12.4178C4.17862 12.5967 4.46267 12.7016 4.80474 12.8831C4.88335 12.9258 4.81836 12.8232 4.89523 12.8628C5.2945 13.071 5.67433 13.3298 6.0113 13.5923C6.08613 13.6508 5.98558 13.6433 6.01984 13.6734C6.17122 13.8059 6.2618 13.7525 6.40646 13.8774C6.43708 13.9037 6.39388 13.9266 6.39721 13.9346C6.44961 14.0616 6.59088 14.0299 6.61656 14.0446C6.9409 14.2269 7.07612 14.4499 7.38852 14.6242C7.42597 14.6447 7.37259 14.5479 7.47593 14.6083C8.16059 15.0092 8.9078 15.3745 9.65033 15.6215C9.76609 15.66 9.67153 15.677 9.67749 15.6839C9.78047 15.7938 9.88385 15.7088 9.92342 15.7141C9.96772 15.7203 10.0113 15.7285 10.0544 15.7375C10.318 15.7931 10.544 15.885 10.7456 15.8076C12.0562 16.0667 13.393 15.9937 14.7199 15.9107C14.7368 15.9095 14.7144 15.9657 14.7482 15.9632C15.156 15.9296 15.0671 15.8599 15.3111 15.7144C15.3729 15.6777 15.5981 15.755 15.618 15.7596C15.6898 15.7778 15.6381 15.8682 15.6612 15.8698C15.8528 15.8795 15.7692 15.6347 16.0104 15.5792C16.0181 15.5779 15.9971 15.6314 16.0184 15.6313C16.0849 15.631 16.1429 15.5978 16.2081 15.5987C16.3574 15.6008 16.4408 15.7094 16.6374 15.582C16.6623 15.5654 16.5826 15.4363 16.7987 15.3841C16.8855 15.364 17.2597 15.2527 17.368 15.2287C17.4757 15.2058 17.4175 15.2728 17.4255 15.2725C17.7266 15.2447 17.627 15.3023 17.7976 15.3452C17.9683 15.387 17.8616 15.191 17.9117 15.1492C17.9617 15.1075 18.1845 15.0881 18.2413 15.0878C18.2979 15.0877 18.2439 15.1373 18.2924 15.1318C18.613 15.0933 18.3888 14.9844 18.4757 14.9182C18.682 14.7606 18.9131 14.8518 19.1321 14.7915C19.1909 14.7752 19.1318 14.7569 19.1817 14.7356C19.3783 14.652 19.519 14.6556 19.7323 14.5303C19.7666 14.5101 19.922 14.3511 20.0659 14.3763C20.0864 14.38 20.0515 14.4353 20.1405 14.4135C20.274 14.3807 20.5101 14.3075 20.6445 14.2473C20.7446 14.2025 20.6046 14.1798 20.7414 14.155C20.8021 14.1442 20.7077 14.2174 20.8206 14.1941C20.9319 14.171 21.2084 14.0781 21.3129 14.0438C21.4172 14.0092 21.3446 13.9792 21.3521 13.9732C21.3968 13.9383 21.5948 13.8518 21.6125 13.8467C22.5215 13.5679 23.402 13.4509 24.3299 13.3963C24.4029 13.3925 24.3531 13.3403 24.3643 13.3392C24.4554 13.3293 24.4878 13.3432 24.5 13.3657C24.5214 13.4059 24.4822 13.4738 24.5913 13.5057C24.5678 13.3974 24.6716 13.4164 24.8481 13.4165C24.9333 13.4168 24.8904 13.3717 24.8985 13.368C25.0317 13.3145 25.112 13.4074 25.1319 13.4266C25.2067 13.4977 25.3077 13.4384 25.3568 13.488C25.4057 13.5374 25.2696 13.5769 25.4333 13.603C25.4863 13.5728 25.3796 13.4516 25.5094 13.4574C26.006 13.472 26.8513 13.8128 27.2084 13.9525C27.5683 14.0883 27.6863 14.1268 27.8908 14.2191C28.2588 14.3875 28.1472 14.2644 28.3936 14.3235C28.6403 14.3834 28.4586 14.5108 28.4777 14.561C28.4961 14.6109 28.547 14.587 28.58 14.6235C28.6129 14.66 28.5144 14.6502 28.6076 14.6958C28.7006 14.7413 28.9897 14.7792 29.0387 14.7538C29.1429 14.7 29.0581 14.5677 29.3006 14.6973C29.3145 14.7048 29.2493 14.7316 29.3036 14.758C29.7349 14.9662 30.1975 15.1429 30.6386 15.3258C30.6993 15.351 30.6266 15.3837 30.6618 15.3989C31.0298 15.5559 30.9232 15.4247 31.1597 15.392C31.0739 15.5062 31.1644 15.6229 31.4574 15.7054C31.6336 15.754 31.6186 15.6886 31.7425 15.6777C31.7795 15.6744 31.8946 15.7443 31.9238 15.7226C32.0191 15.6515 31.925 15.5279 32.2157 15.6332C32.2285 15.6379 32.176 15.6774 32.2211 15.6901C32.5134 15.7697 32.5666 15.6841 32.8869 15.7206C33.1375 15.7496 33.5806 15.8475 33.8703 15.8592C33.866 15.93 33.9245 15.9614 34 15.9627C34.0859 15.9643 34.1917 15.9262 34.2485 15.8685C34.4365 15.8665 34.6383 15.8458 34.821 15.8405C34.8839 15.8386 34.8478 15.8867 34.8562 15.8905C34.9862 15.9509 35.0559 15.8385 35.0953 15.829C35.5257 15.7284 35.8959 15.7272 36.2873 15.548C36.3013 15.5415 36.2974 15.434 36.4262 15.4786C36.4347 15.4817 36.3123 15.5651 36.5055 15.5157C36.6978 15.4669 37.0761 15.4109 37.324 15.2764C37.3844 15.2441 37.5172 15.1092 37.6677 15.1275C37.6878 15.13 37.6789 15.1651 37.7093 15.1723C37.8075 15.1948 37.8155 15.0792 37.9398 15.1309C38.0643 15.1826 38.2839 15.1757 38.5263 15.0198C38.5341 15.015 38.5673 14.9129 38.6507 14.8835C38.784 14.8365 38.9775 14.7834 39.1155 14.7317C39.1815 14.707 39.121 14.6735 39.1322 14.6684C39.5671 14.4767 39.9008 14.4036 40.3885 14.26C40.4775 14.2338 40.7105 14.0819 40.9002 14.0826C41.108 14.0841 40.9881 14.3862 41.4021 14.2022C41.5671 14.1302 41.7104 13.7522 42.0719 13.8419C42.6856 13.6583 43.282 13.6516 43.9124 13.5528C43.9406 13.5483 44.027 13.4524 44.0959 13.4508C44.1973 13.4488 44.2532 13.49 44.3253 13.4914C44.3842 13.4928 44.4423 13.4929 44.5 13.4924C44.739 13.4901 44.9635 13.4758 45.1954 13.4979C45.3052 13.5088 45.2643 13.5492 45.3947 13.5642C45.5232 13.5798 45.6194 13.5323 45.7916 13.5857C45.9189 13.6264 46.0349 13.7661 46.2005 13.8145C46.2313 13.702 46.3501 13.727 46.5688 13.751C46.6112 13.7558 46.5775 13.7051 46.5982 13.7053C46.6831 13.7058 46.7443 13.7577 46.8254 13.7578C46.8452 13.7579 46.8574 13.72 46.8743 13.718C47.019 13.699 47.1965 13.855 47.225 13.8826C47.3351 13.9857 47.4182 13.9629 47.5084 14.0251C47.5977 14.0878 47.4397 14.0532 47.5488 14.1145C47.7763 14.2421 48.0749 14.3857 48.299 14.5227C48.3874 14.5764 48.3545 14.4945 48.3678 14.5011C48.5645 14.6041 48.7074 14.7735 48.8703 14.7627C48.8235 15.072 48.9944 14.8171 49.2006 15.0637C49.2164 15.0834 49.1531 15.1999 49.0722 15.1553C48.9902 15.1099 48.9066 14.9895 48.786 14.9364C48.7578 14.9231 48.5464 14.9208 48.5242 14.9152C48.3408 14.8595 48.4261 14.6868 48.4226 14.6714C48.3876 14.5116 48.1344 14.5159 48.0832 14.4989C47.8385 14.4114 47.6581 14.2968 47.4482 14.2406C47.3138 14.2058 47.2529 14.3188 47.1553 14.2778C46.827 14.1456 46.7531 13.9396 46.3841 14.0056C46.3058 14.0214 46.3482 14.1706 46.1173 14.0105C46.1047 14.0005 45.9332 13.8659 45.8111 13.9112C45.7963 13.917 45.7905 13.957 45.7721 13.9576C45.6499 13.9612 45.5681 13.9178 45.4359 13.9186C45.3019 13.9193 45.1388 13.9285 44.9878 13.9066C44.8954 13.8931 44.7798 13.8138 44.7359 13.7944C44.6571 13.7586 44.5719 13.7803 44.5 13.785C44.4589 13.7878 44.4225 13.7848 44.3934 13.7616C44.3125 13.6982 44.4687 13.5969 44.2561 13.5594C44.2509 13.6646 44.236 13.7729 44.227 13.8789C43.7777 13.8884 43.3308 13.8997 42.8817 13.9785C42.8262 13.9884 42.8923 14.0346 42.8333 14.0468C42.5847 14.0985 42.358 14.1036 42.1033 14.1794C41.9056 14.2386 41.7029 14.3528 41.5007 14.4255C41.3415 14.3447 41.0442 14.4755 40.8187 14.5372C40.7396 14.5587 40.7347 14.5266 40.6758 14.5348C40.4539 14.5674 40.5858 14.6358 40.5339 14.6707C40.3115 14.8214 40.2125 14.6011 39.9231 14.7101C39.9076 14.7157 39.7633 14.9039 39.7402 14.9209C39.5938 15.0295 39.6978 14.8888 39.5917 14.9174C39.398 14.9698 39.2568 14.9895 39.0486 15.1067C38.988 15.141 38.8612 15.2733 38.7139 15.2618C38.6945 15.2603 38.689 15.2172 38.6748 15.2198C38.4201 15.2696 38.4588 15.397 38.3358 15.4897C38.2125 15.5826 37.9658 15.5726 37.9134 15.5627C37.7758 15.5383 37.9916 15.5043 37.9954 15.4957C38.0412 15.3945 37.8898 15.463 37.7672 15.4982C37.707 15.3811 37.5424 15.4457 37.6405 15.5349C37.6516 15.5446 37.7411 15.501 37.7672 15.4982C37.7041 15.6557 37.5217 15.7356 37.2787 15.6882C37.1648 15.6655 37.2365 15.5756 36.9505 15.689C36.8201 15.7397 36.8976 15.8103 36.7854 15.8688C36.5282 16.0026 36.1475 16.0148 35.8631 16.0884C35.7594 16.1153 35.8716 16.1419 35.8008 16.1618C35.6122 16.2143 35.4359 16.2087 35.2445 16.2566C35.2271 16.261 35.278 16.3055 35.2172 16.3152C34.8024 16.3803 34.4271 16.3848 34 16.3797C33.9516 16.379 33.9026 16.3781 33.8528 16.3771C33.6167 16.3747 33.1921 16.3715 32.9508 16.333C32.5302 16.2723 32.0411 16.0953 31.6939 16.0253C31.4668 15.9793 31.503 16.0411 31.3975 16.0491C31.1926 16.0647 30.9023 15.8488 30.8657 15.8168C30.8645 15.8161 31.0575 15.8628 30.9642 15.8064C30.9219 15.7357 30.868 15.8173 30.8657 15.8168C30.8404 15.7972 30.4688 15.6634 30.3922 15.6464C30.3503 15.6377 30.3569 15.6915 30.3353 15.6861C29.8217 15.5552 29.3254 15.3771 28.8431 15.163C28.8349 15.1587 28.8678 15.113 28.8482 15.1035C28.5726 14.969 28.3676 14.9595 28.1204 14.9053C27.8739 14.8513 27.6955 14.7687 27.591 14.6292C27.4118 14.574 27.1753 14.4438 27.038 14.3697C26.9007 14.2955 26.8469 14.3901 26.8336 14.3877C26.4165 14.3203 26.2065 14.1919 25.7954 14.0837C25.5996 14.0308 25.2076 13.9754 24.9966 13.9679C24.829 13.9602 24.7313 13.9293 24.5787 13.9417C24.5582 13.9435 24.578 13.9912 24.5718 13.9929C24.5391 14.0034 24.5163 14.0078 24.5 14.0077C24.4303 14.0076 24.4778 13.9292 24.4489 13.9128C24.3182 13.8395 24.2312 13.8004 24.0075 13.852C23.9551 13.8638 23.8188 14.0436 23.7287 14.0644C23.6094 14.0916 23.6475 14.0263 23.5216 14.0585C23.5108 14.0614 23.5183 14.0972 23.4395 14.1077C23.0752 14.1568 22.6724 14.2246 22.2929 14.3308C22.2415 14.3451 22.3227 14.3836 22.2488 14.4052C21.8987 14.5078 21.5179 14.6249 21.1655 14.7135C21.0795 14.7349 21.1191 14.6786 21.097 14.6731C20.9617 14.6408 20.8355 14.7968 20.8097 14.8079C20.199 15.0726 19.6846 15.1589 19.0498 15.4294C19.0162 15.4441 18.7782 15.6478 18.6247 15.596C18.6141 15.5927 18.4614 15.5385 18.3754 15.6395C18.37 15.6458 18.4625 15.6696 18.3279 15.7087C18.1939 15.7477 17.9907 15.8501 17.7891 15.8534C17.7256 15.8545 17.56 15.8012 17.4079 15.9298C17.398 15.9389 17.1785 16.191 17.0465 16.098C17.0252 16.0825 17.0062 15.9518 16.8143 16.0738C16.7776 16.0972 16.8582 16.1062 16.757 16.1521C16.6015 16.2227 16.3755 16.2434 16.1868 16.3476C16.1543 16.3659 16.021 16.4883 15.8853 16.4478C15.8641 16.4415 15.8909 16.3908 15.826 16.3996C15.5165 16.4411 15.2004 16.5292 14.8807 16.5468C14.7684 16.5527 14.8146 16.4741 14.6968 16.4716C14.5788 16.4693 14.3432 16.4802 14.2264 16.5249C14.1083 16.57 14.2536 16.6694 14.0703 16.6966C13.272 16.8123 12.4644 16.7534 11.6671 16.6773C11.5497 16.6657 11.644 16.7152 11.4696 16.6995C11.0424 16.6617 10.4272 16.5884 9.89768 16.4583C9.60987 16.389 9.3579 16.3021 9.1752 16.213C8.76171 16.0043 9.32382 16.1358 9.00315 15.9984C8.85095 15.9319 8.63461 15.9886 8.59479 15.977C8.20848 15.8665 7.98291 15.693 7.66172 15.5434C7.59537 15.5121 7.63346 15.5932 7.57719 15.5658C7.38426 15.4721 7.20259 15.3387 7.02857 15.2373C6.95018 15.1916 6.94288 15.235 6.87404 15.1883C6.70886 15.0763 6.57173 14.9661 6.43465 14.8284C6.42215 14.8158 6.54792 14.8389 6.42857 14.7567C6.23635 14.6242 6.02137 14.4295 5.78284 14.3122C5.71241 14.2779 5.65627 14.3523 5.5558 14.2055C5.53482 14.175 5.63421 14.1066 5.42014 14.0787C5.38416 14.0733 5.04565 14.0045 4.96106 13.8532C4.93829 13.8126 4.89805 13.6797 4.81298 13.6458C4.80138 13.6416 4.81745 13.7094 4.75128 13.6758C4.51914 13.5575 4.28532 13.4273 4.04468 13.3404C3.98063 13.3176 4.05269 13.4046 3.95867 13.37C3.73279 13.2872 3.46464 13.1926 3.23029 13.1337C3.20282 13.1263 3.17553 13.1197 3.14864 13.1139C3.06865 13.0977 3.12926 13.062 3.12424 13.0566C3.03203 12.9695 2.96312 13.0719 2.93115 13.0775C2.72531 13.1136 2.55314 13.0911 2.34574 13.1525C2.28974 13.1696 2.34177 13.2073 2.33154 13.2143C2.2258 13.2855 2.2908 13.1777 2.21267 13.1889C1.99403 13.2211 1.75183 13.3153 1.53812 13.4149C1.45864 13.452 1.571 13.4648 1.50072 13.4973C1.08506 13.6918 0.644976 13.9257 0.218075 14.134C0.137529 14.1733 0.164566 14.1075 0.143415 14.1081C-0.00369835 14.112 -0.119339 14.2897 -0.152723 14.3198C-0.303539 14.456 -0.390034 14.4622 -0.53903 14.5582C-1.26525 15.0272 -2.23021 15.5623 -3.06876 15.8504C-3.53859 16.0136 -4.00057 16.1173 -4.47557 16.13C-5.10534 16.1455 -5.69114 15.9902 -6.26897 15.7504C-6.33358 15.7232 -6.29171 15.8047 -6.34783 15.7817C-7.07428 15.4748 -7.67011 15.045 -8.28086 14.6676C-8.33088 14.6364 -8.28998 14.729 -8.37125 14.6804C-8.53775 14.5814 -8.73905 14.4467 -8.89113 14.3298C-8.9654 14.2728 -8.83438 14.2996 -8.90981 14.2431C-9.08551 14.1116 -9.28229 13.9875 -9.47786 13.887C-9.56108 13.8446 -9.46626 13.9625 -9.57191 13.904C-10.2935 13.5088 -11.0047 13.2357 -11.7645 13.1152C-11.8158 13.1072 -11.8575 12.9895 -11.9742 13.0102C-11.9831 13.042 -11.9828 13.0794 -11.9866 13.1133C-11.9911 13.1134 -11.9955 13.1134 -12 13.1135C-13.1055 13.1517 -14.3094 13.5096 -15.4621 13.9325C-15.5112 13.9509 -15.405 13.9754 -15.4998 14.0114C-16.0477 14.2203 -16.5669 14.4571 -17.1435 14.6492C-17.2007 14.6685 -17.2169 14.5584 -17.3711 14.646C-17.3971 14.6609 -17.6364 14.7864 -17.6879 14.8362C-17.6948 14.8433 -17.6301 14.8681 -17.7067 14.9054C-18.1559 15.1233 -18.63 15.3422 -19.091 15.542C-19.1659 15.5744 -19.1127 15.4878 -19.1661 15.5104C-19.5438 15.6708 -19.9142 15.9107 -20.2817 16.0551C-20.5192 16.1472 -20.4922 16.0283 -20.6483 16.011C-20.6776 16.0125 -20.8166 16.0875 -20.8506 16.0464C-20.9343 15.9419 -20.9349 15.7765 -21.0328 15.6699C-21.0536 15.6465 -21.2245 15.7808 -21.1526 15.6558C-21.1424 15.6442 -21.017 15.5462 -20.9959 15.5063C-20.9793 15.4774 -21.0508 15.4559 -21.0094 15.4079C-20.969 15.3605 -20.8975 15.3722 -20.8256 15.3035C-20.7609 15.2385 -20.8198 15.2011 -20.6626 15.1082ZM26.4154 14.0496C26.2937 13.9608 26.2229 14.135 26.3806 14.1344C26.3883 14.1342 26.4217 14.0541 26.4154 14.0496ZM43.317 13.769C43.1211 13.7099 43.0133 13.8494 43.1508 13.8939C43.2869 13.9392 43.3759 13.7872 43.317 13.769ZM45.2418 13.6662C45.0294 13.5848 44.9816 13.8477 45.2109 13.8107C45.2245 13.8087 45.2543 13.671 45.2418 13.6662ZM-20.0952 15.6824C-20.0979 15.681 -20.1999 15.7327 -20.203 15.7372C-20.2297 15.8187 -20.0223 15.7134 -20.0952 15.6824ZM47.1316 13.9941C47.0776 13.9362 46.8786 13.9159 46.9452 13.9842C46.9962 14.0374 47.1974 14.0646 47.1316 13.9941ZM19.1682 14.8755C19.1652 14.8736 19.085 14.8992 19.0918 14.9135C19.1141 14.9594 19.2197 14.907 19.1682 14.8755ZM49.7916 15.823C49.5013 15.4472 49.4265 15.0798 49.7864 15.4966C49.848 15.5723 49.5925 15.3856 49.6612 15.491C49.7856 15.684 49.9903 15.7133 50.063 15.959C50.0743 15.9957 49.8082 15.8405 49.7908 15.8224C49.7911 15.8226 49.7913 15.8228 49.7916 15.823ZM26.3997 13.8111C26.3979 13.8078 26.2859 13.7736 26.2827 13.7754C26.2063 13.8155 26.4301 13.8837 26.3997 13.8111ZM14.421 16.003C14.4131 15.9993 14.1483 16.0248 14.1398 16.03C14.0104 16.1425 14.5521 16.0908 14.421 16.003ZM33.8748 15.8633C33.9151 15.8448 33.9576 15.8315 34 15.8241C34.0898 15.8087 34.1789 15.8199 34.2479 15.8684C34.1657 15.8685 34.083 15.8688 34 15.8673C33.9582 15.8665 33.9164 15.8653 33.8748 15.8633Z" fill="white"/>
<path id="Vector 7" d="M3.52535 9.57345C3.55764 9.47958 3.63636 9.37816 3.70494 9.31103C3.72638 9.28989 3.74707 9.3197 3.76315 9.30595C3.7946 9.27909 3.80023 9.23909 3.83425 9.21371C3.84566 9.20542 3.88145 9.2471 3.89237 9.23781C3.9506 9.18881 3.9762 9.12445 4.02677 9.06801C4.27261 8.79582 4.49317 8.52748 4.72994 8.25806C4.80758 8.16975 4.93345 8.08615 4.99237 7.97869C4.99927 7.96604 4.95796 7.94398 4.95667 7.9395C4.93769 7.87005 5.00161 7.93905 5.02856 7.9251C5.13477 7.87035 5.21436 7.77891 5.26724 7.68641C5.28949 7.64716 5.19047 7.62358 5.25864 7.62151C5.26329 7.62131 5.2939 7.6611 5.30568 7.65499C5.33231 7.64107 5.35908 7.59492 5.37583 7.5808C5.40827 7.55374 5.41229 7.54814 5.43791 7.51823C5.47291 7.47805 5.53231 7.44498 5.56082 7.3939C5.5668 7.38289 5.51797 7.36303 5.52407 7.34255C5.53018 7.32206 5.567 7.28506 5.58733 7.27936C5.60761 7.27372 5.63289 7.30485 5.64177 7.30835C5.71624 7.33838 5.67439 7.22458 5.67744 7.21699C5.73474 7.08112 5.85891 7.02914 5.94506 6.92967C6.01045 6.85398 6.06574 6.76064 6.13062 6.69107C6.20806 6.60833 6.29204 6.55454 6.36155 6.46953C6.36896 6.46057 6.31589 6.4315 6.32486 6.42046C6.42017 6.30329 6.52488 6.19648 6.65498 6.11213C6.66805 6.10374 6.69344 6.1528 6.70878 6.1465C6.8015 6.10747 6.9753 6.06848 6.84544 5.87655C6.89352 5.83699 6.95185 5.78683 7.02286 5.77671C7.06863 5.77012 7.08661 5.83388 7.09864 5.78525C7.1014 5.77434 7.05634 5.75037 7.06323 5.73653C7.09209 5.67848 7.15063 5.63871 7.17411 5.57574C7.1788 5.56286 7.14397 5.53534 7.14055 5.5273C7.11365 5.46135 7.22582 5.49724 7.23886 5.49459C7.33697 5.4738 7.36277 5.41263 7.41614 5.35741C7.42858 5.34457 7.37069 5.31951 7.3811 5.3057C7.43496 5.2354 7.50365 5.16938 7.5822 5.12411C7.59982 5.11408 7.6246 5.16169 7.63491 5.15868C7.67991 5.14497 7.61607 5.07326 7.65852 5.05821C7.66735 5.05499 7.69572 5.08809 7.70024 5.09023C7.77109 5.12393 7.70805 5.03639 7.71054 5.03033C7.74052 4.95175 7.8532 4.99329 7.89381 4.92734C7.89853 4.91943 7.8447 4.89659 7.86042 4.87666C7.96402 4.74461 8.09527 4.62769 8.24151 4.537C8.26409 4.52296 8.28139 4.56461 8.28619 4.56693C8.36194 4.60235 8.29632 4.517 8.29912 4.50822C8.32242 4.44169 8.43099 4.45672 8.3697 4.33726C8.55206 4.19668 8.67737 4.00563 8.86386 3.87237C8.93397 3.78449 9.05296 3.79674 9.13614 3.87237C9.15963 3.91235 9.1923 3.97076 9.20679 4.01901C9.20813 4.02251 9.16476 4.05252 9.1676 4.05934C9.20326 4.14424 9.25424 4.07914 9.36479 4.0545C9.39265 4.04843 9.33055 4.16032 9.32656 4.1692C9.31144 4.20135 9.24266 4.24091 9.24106 4.24868C9.22986 4.31128 9.4217 4.13921 9.45402 4.17673C9.45472 4.17821 9.41443 4.20407 9.41359 4.21034C9.41087 4.22991 9.43375 4.22766 9.42992 4.24829C9.42098 4.29596 9.33261 4.38524 9.41955 4.37495C9.43044 4.37316 9.53715 4.27302 9.56034 4.31097C9.56938 4.32603 9.62382 4.38639 9.63208 4.41086C9.64007 4.43496 9.59365 4.453 9.59318 4.4556C9.58698 4.54476 9.55151 4.54277 9.50039 4.62516C9.44936 4.70713 9.61158 4.55967 9.63819 4.5533C9.66471 4.54694 9.65428 4.61435 9.64785 4.63446C9.64136 4.6545 9.60949 4.6631 9.60814 4.67721C9.60019 4.77043 9.71013 4.62956 9.75092 4.62405C9.8489 4.61272 9.74677 4.74378 9.76463 4.78992C9.76934 4.80224 9.79117 4.77068 9.80098 4.777C9.83952 4.80246 9.81791 4.85564 9.88687 4.8657C9.89877 4.86813 9.99854 4.83522 9.96029 4.90127C9.95471 4.91072 9.91692 4.92862 9.92187 4.94871C9.92919 4.97874 9.95489 5.0234 9.98496 5.03837C10.0072 5.04939 10.0418 4.98669 10.0442 5.02196C10.0452 5.03768 10.0001 5.04447 10.0046 5.07194C10.0095 5.09991 10.0483 5.14394 10.0637 5.1603C10.0791 5.17666 10.1102 5.13488 10.1139 5.1341C10.1359 5.13002 10.1824 5.14781 10.1849 5.15084C10.3161 5.29918 10.3637 5.49037 10.5051 5.61705C10.5162 5.6271 10.551 5.58549 10.5531 5.58668C10.6027 5.61161 10.4678 5.6711 10.4539 5.72877C10.5341 5.65582 10.5323 5.68448 10.5645 5.70476C10.5801 5.71449 10.6064 5.68047 10.6107 5.67896C10.6762 5.65832 10.6243 5.72467 10.6143 5.73897C10.5777 5.79183 10.6454 5.75891 10.6208 5.79414C10.5964 5.82909 10.5328 5.8476 10.555 5.87332C10.591 5.856 10.653 5.77202 10.6821 5.7815C10.7919 5.81686 10.849 6.01101 10.892 6.07626C10.9358 6.14228 10.9576 6.15756 10.9762 6.20215C11.0099 6.2829 11.0483 6.21131 11.1076 6.22913C11.1669 6.24703 11.0082 6.34526 10.9822 6.37624C10.9562 6.40712 10.9928 6.38725 10.9817 6.40813C10.9706 6.42898 10.9373 6.43107 10.9444 6.45268C10.9516 6.47428 11.0432 6.47432 11.0801 6.45375C11.1583 6.41013 11.2129 6.33107 11.2238 6.39535C11.2243 6.39909 11.1801 6.42184 11.1842 6.43458C11.2185 6.53509 11.281 6.61478 11.3182 6.71212C11.3233 6.72553 11.2738 6.75053 11.2762 6.75872C11.3017 6.84418 11.3536 6.7636 11.4604 6.73399C11.3498 6.81185 11.3019 6.88342 11.3408 6.932C11.3642 6.96124 11.4056 6.91886 11.453 6.9112C11.4673 6.90886 11.4529 6.95501 11.4773 6.94112C11.5573 6.89585 11.6197 6.81221 11.6293 6.88745C11.6297 6.89084 11.5857 6.91538 11.5895 6.92481C11.6143 6.9859 11.6922 6.93152 11.7444 6.97688C11.7852 7.01241 11.8008 7.12236 11.8321 7.17512C11.7142 7.27042 11.7772 7.29248 11.8728 7.24414C11.8946 7.27743 11.9263 7.30665 11.9393 7.34526C11.9439 7.35852 11.9045 7.37974 11.9019 7.38402C11.8605 7.45086 11.9499 7.3995 11.9584 7.40353C12.0467 7.44994 12.0348 7.55679 12.1491 7.57725C12.1532 7.57795 12.2377 7.515 12.1933 7.582C12.1902 7.58654 12.1347 7.59452 12.1581 7.62884C12.1816 7.66328 12.187 7.7587 12.2613 7.77222C12.2793 7.77561 12.3679 7.7487 12.3343 7.81301C12.3297 7.82168 12.3037 7.83768 12.2942 7.85256C12.264 7.90018 12.3523 7.83999 12.2956 7.91337C12.2389 7.98673 12.2138 8.06289 12.2985 8.06759C12.3011 8.06785 12.3748 8.02475 12.3852 8.0395C12.402 8.06328 12.4152 8.10699 12.4349 8.13015C12.4445 8.14126 12.479 8.10074 12.4813 8.10209C12.5669 8.15983 12.5726 8.24033 12.6251 8.33593C12.6345 8.35337 12.725 8.35079 12.7049 8.41523C12.683 8.48581 12.4582 8.61749 12.5644 8.64996C12.6065 8.66253 12.8904 8.49399 12.8032 8.65386C12.9181 8.72734 12.9317 8.8796 13.0603 8.9412C13.0661 8.94404 13.1478 8.89994 13.1557 8.91143C13.1678 8.92922 13.1424 8.96535 13.1499 8.9788C13.1805 9.03578 13.2446 9.05611 13.2774 9.10447C13.29 9.12288 13.2506 9.14436 13.2668 9.16767C13.2828 9.19075 13.3393 9.168 13.3414 9.21433C13.3428 9.24938 13.2694 9.34634 13.2817 9.38273C13.3728 9.30961 13.3846 9.32752 13.4391 9.34477C13.4495 9.3478 13.4746 9.3144 13.481 9.31449C13.5081 9.31425 13.4923 9.34791 13.5201 9.34554C13.5268 9.34501 13.5575 9.31958 13.5647 9.31769C13.6271 9.30075 13.5858 9.3913 13.5785 9.40689C13.5511 9.46661 13.5984 9.44227 13.5959 9.47575C13.5929 9.5085 13.5483 9.50076 13.5548 9.53056C13.5689 9.59311 13.6145 9.63736 13.6498 9.68196C13.6642 9.69975 13.6948 9.65346 13.6978 9.65521C13.7385 9.6825 13.7239 9.7528 13.8198 9.70178C13.6291 9.90091 13.8592 9.70714 13.859 9.79125C13.8588 9.7979 13.7647 9.88737 13.7375 9.88495C13.7106 9.88285 13.7199 9.8313 13.6799 9.83008C13.6709 9.83022 13.5555 9.88212 13.5465 9.88298C13.4776 9.89062 13.6215 9.7606 13.6284 9.75222C13.701 9.66021 13.569 9.70687 13.5562 9.70564C13.4914 9.69305 13.4825 9.64009 13.4296 9.623C13.3948 9.61127 13.2961 9.69116 13.2847 9.67149C13.2464 9.60575 13.365 9.47138 13.1987 9.51169C13.163 9.52005 13.0667 9.62131 13.1157 9.50962C13.1188 9.50262 13.1696 9.40752 13.1057 9.4294C13.0976 9.43218 13.0666 9.45811 13.0614 9.45722C13.0274 9.45073 13.0407 9.4163 13.0098 9.40326C12.9784 9.38951 12.9394 9.37861 12.9292 9.34483C12.923 9.32455 12.9649 9.25691 12.973 9.23781C12.9968 9.18325 12.9111 9.21637 12.9498 9.16225C12.9887 9.1078 13.0857 9.07098 13.0892 9.00966C13.0072 9.07539 12.9217 9.14121 12.8386 9.20652C12.7797 9.12961 12.7471 9.0368 12.6798 8.96261C12.6714 8.9536 12.6357 8.999 12.6259 8.99066C12.5852 8.95545 12.5864 8.89357 12.538 8.86017C12.5006 8.83465 12.4228 8.83436 12.3825 8.80914C12.4579 8.71159 12.3838 8.68592 12.3609 8.64086C12.3529 8.62513 12.3784 8.60559 12.3787 8.58943C12.379 8.52889 12.3108 8.61326 12.2898 8.61404C12.1998 8.61703 12.3821 8.46002 12.3374 8.41516C12.3351 8.41274 12.21 8.46245 12.2002 8.46312C12.137 8.46829 12.2309 8.43014 12.2238 8.40664C12.2108 8.36366 12.2161 8.32189 12.1559 8.30782C12.1383 8.30395 12.0543 8.32759 12.085 8.26761C12.0889 8.2597 12.1229 8.23431 12.123 8.23051C12.1217 8.16384 12.018 8.24731 11.9641 8.25276C11.9102 8.2582 11.9515 8.16375 11.9659 8.13957C12.003 8.07681 12.0006 8.1357 12.0067 8.13245C12.0785 8.09382 12.0463 8.0763 12.0349 8.05184C12.1333 7.96601 12.1041 7.94275 12.0227 8.02681C12.0139 8.03604 12.0362 8.04401 12.0349 8.05184C11.9215 8.1156 11.883 8.0946 11.9475 7.98465C11.9779 7.9332 12.0407 7.90666 11.9827 7.87371C11.9563 7.85869 11.8938 7.92424 11.859 7.92046C11.7795 7.91179 11.7968 7.80079 11.7487 7.76314C11.7313 7.74954 11.7066 7.79695 11.6935 7.78883C11.6586 7.76742 11.6654 7.71756 11.626 7.69942C11.6224 7.69782 11.5881 7.7372 11.5799 7.72824C11.517 7.66109 11.4908 7.57732 11.4308 7.50288C11.4017 7.46678 11.327 7.42064 11.3008 7.37977C11.2551 7.30908 11.2478 7.1823 11.1885 7.13879C11.1499 7.11028 11.1166 7.15088 11.0769 7.1578C10.9999 7.17132 11.0509 7.04147 11.0596 7.02232C11.0599 7.02172 11.0947 7.04493 11.1016 7.01164C11.1362 6.96703 11.0601 7.02252 11.0596 7.02232C11.0652 7.00991 11.0233 6.94066 11.0057 6.93466C10.996 6.93142 10.9614 6.96616 10.9571 6.96388C10.8554 6.90905 10.7782 6.83469 10.7266 6.73613C10.7261 6.73403 10.7701 6.70155 10.7685 6.69704C10.7474 6.63313 10.6703 6.64466 10.607 6.63015C10.544 6.61595 10.5275 6.5751 10.5804 6.49189C10.5463 6.46913 10.5427 6.39957 10.5417 6.35881C10.5407 6.31805 10.4558 6.38223 10.4524 6.38138C10.3452 6.35704 10.3583 6.2773 10.3074 6.20079C10.2831 6.16393 10.2173 6.10851 10.1778 6.07887C10.1465 6.05572 10.1513 6.02239 10.117 6.00596C10.1124 6.00372 10.0789 6.0375 10.0766 6.03756C10.0085 6.04402 10.1094 5.98455 10.1203 5.96528C10.16 5.89531 10.1795 5.85612 10.1213 5.84118C10.1078 5.83761 9.95904 5.9191 9.93817 5.90917C9.91124 5.89601 9.96379 5.86586 9.93448 5.85314C9.93202 5.85202 9.90396 5.87589 9.89404 5.86135C9.84728 5.79381 9.80963 5.7148 9.75274 5.65201C9.74504 5.6433 9.70959 5.69207 9.69773 5.6801C9.64204 5.62384 9.59022 5.55808 9.56382 5.48359C9.55695 5.46453 9.59603 5.44754 9.60272 5.4366C9.64296 5.37006 9.53815 5.41105 9.53286 5.40788C9.40565 5.33534 9.41056 5.19042 9.28671 5.11427C9.28023 5.11073 9.15462 5.1391 9.21224 5.05507C9.21606 5.04946 9.2759 4.96454 9.20855 4.99116C9.20436 4.99284 9.17517 5.03847 9.16106 5.01352C9.14682 4.98842 9.09236 4.97736 9.11127 4.91169C9.11667 4.89034 9.1736 4.80246 9.08881 4.8259C9.08285 4.82749 8.90888 4.90153 8.9915 4.80633C9.00509 4.79066 9.10773 4.7078 9.02908 4.71967C9.01339 4.72146 9.00131 4.75264 8.97236 4.74697C8.92795 4.73847 8.92552 4.68123 8.85526 4.68954C8.84223 4.69032 8.75811 4.72971 8.79136 4.66424C8.7968 4.65425 8.83511 4.63128 8.83002 4.61782C8.80524 4.55293 8.74705 4.53081 8.72632 4.46131C8.72033 4.43837 8.78064 4.39914 8.78071 4.37049C8.78304 4.34437 8.76215 4.29369 8.72451 4.30088C8.68679 4.30797 8.61743 4.39998 8.5924 4.38638C8.59141 4.38587 8.59044 4.38536 8.58948 4.38486H9.41052C9.33125 4.52361 9.17202 4.59693 9.05874 4.70264C9.04139 4.71886 9.08443 4.73242 9.06085 4.75846C8.97428 4.85432 8.8509 5.03989 8.71113 5.06214C8.59881 5.08036 8.63861 4.96178 8.57112 4.99221C8.53924 5.0064 8.61083 5.12262 8.60843 5.1312C8.5865 5.21578 8.50518 5.21682 8.47175 5.27835C8.46468 5.29126 8.51314 5.31778 8.5067 5.32836C8.48502 5.36485 8.43753 5.38045 8.4131 5.41274C8.40223 5.42733 8.43423 5.45288 8.42051 5.46286C8.38816 5.48691 8.35251 5.49976 8.29834 5.50153C8.29341 5.50168 8.27252 5.44977 8.25125 5.46964C8.21705 5.50178 8.1487 5.51943 8.1402 5.5855C8.13786 5.60514 8.20553 5.66935 8.13504 5.65036C8.12028 5.64644 8.04483 5.56311 8.08804 5.65859C8.09518 5.6745 8.14433 5.81306 8.05998 5.78009C8.03784 5.77134 7.95514 5.7256 7.95274 5.74929C7.95265 5.75275 7.99638 5.77934 7.98913 5.79427C7.96295 5.84631 7.91881 5.88586 7.89065 5.9392C7.8832 5.95352 7.93695 5.97185 7.92464 5.99206C7.89034 6.04822 7.82809 6.09594 7.77383 6.13071C7.75383 6.14338 7.73303 6.10261 7.72847 6.10066C7.65444 6.06873 7.71902 6.15006 7.71738 6.16066C7.70584 6.22598 7.64252 6.22355 7.61746 6.26962C7.61048 6.28222 7.65321 6.30804 7.65454 6.31305C7.66636 6.36317 7.61625 6.28784 7.59672 6.29477C7.54186 6.31392 7.50558 6.35929 7.47534 6.40161C7.46427 6.41721 7.52053 6.43977 7.51012 6.45333C7.44949 6.53409 7.37385 6.60909 7.2849 6.66066C7.26801 6.67038 7.24347 6.6324 7.23347 6.62857C7.16381 6.60147 7.20814 6.69443 7.20884 6.70718C7.21212 6.76534 7.17278 6.75127 7.15387 6.78302C7.06255 6.93793 6.89856 7.08336 6.77672 7.1977C6.61823 7.34674 6.47628 7.44648 6.35009 7.61001C6.34201 7.6204 6.39475 7.64818 6.38837 7.65761C6.30407 7.77745 6.19406 7.87209 6.11355 7.99451C6.10688 8.00446 6.16016 8.02665 6.1509 8.04379C6.13233 8.07908 6.09809 8.11554 6.05917 8.13494C6.04026 8.14448 6.02046 8.09426 6.00216 8.10449C5.95947 8.12826 5.92547 8.16334 5.90287 8.20483C5.89336 8.22256 5.9558 8.23527 5.94007 8.25549C5.83288 8.3952 5.73305 8.53487 5.56724 8.62795C5.55595 8.63423 5.45916 8.57204 5.46038 8.60615C5.48423 8.62726 5.51376 8.65019 5.54001 8.67177C5.39849 8.88279 5.21533 9.05992 5.0645 9.26112C5.05811 9.26968 5.11823 9.28986 5.10615 9.30655C5.037 9.40237 4.98539 9.5066 4.86962 9.57159C4.8581 9.57827 4.77307 9.51326 4.7665 9.55248C4.76538 9.55945 4.74779 9.61225 4.75987 9.63629C4.7618 9.63974 4.80882 9.65881 4.80081 9.67384C4.75457 9.75909 4.68921 9.84231 4.6149 9.90773C4.60268 9.91849 4.56561 9.87699 4.55632 9.88474C4.48968 9.9419 4.48514 10.0316 4.40579 10.0774C4.35336 10.1067 4.28122 10.0471 4.18847 10.0295C4.17533 10.027 4.15892 10.0544 4.11144 10.0319C3.99182 9.97566 3.87057 9.89511 3.74226 9.83674C3.71456 9.8242 3.72245 9.8808 3.66968 9.82284C3.66614 9.81892 3.66022 9.77717 3.64219 9.758C3.62972 9.74472 3.57727 9.72978 3.56349 9.70859C3.54979 9.68733 3.59578 9.69605 3.5827 9.66558C3.56945 9.63483 3.51138 9.61436 3.52535 9.57345ZM10.5363 6.17567C10.5566 6.11996 10.4095 6.2355 10.4647 6.23214C10.4676 6.23184 10.5354 6.17846 10.5363 6.17567ZM12.8551 8.94621C12.8936 8.86338 12.7828 8.91954 12.7515 8.9817C12.7203 9.04378 12.8435 8.97135 12.8551 8.94621ZM13.1588 9.21849C13.1805 9.14289 12.972 9.30669 13.0436 9.3091C13.0477 9.30929 13.1575 9.22288 13.1588 9.21849ZM4.22772 9.90242C4.2255 9.90127 4.21174 9.9212 4.21363 9.9229C4.25961 9.96247 4.28659 9.92347 4.22772 9.90242ZM13.4673 9.48661C13.486 9.45304 13.4281 9.44829 13.4051 9.49037C13.3868 9.52434 13.4442 9.5285 13.4673 9.48661ZM9.69546 4.84944C9.69729 4.84729 9.68822 4.83255 9.67638 4.84293C9.63823 4.87636 9.66452 4.88547 9.69546 4.84944ZM13.9147 10.0066C13.854 9.92353 13.9803 9.73422 14.0325 9.83172C14.0415 9.84876 13.9532 9.84718 13.9543 9.8784C13.9535 9.93202 14.0844 9.87248 14.0544 9.94813C14.0505 9.96387 13.9199 10.0141 13.9143 10.0066C13.9144 10.0066 13.9146 10.0066 13.9147 10.0066ZM10.6985 6.01942C10.7 6.01737 10.6865 5.99727 10.6842 5.99839C10.6301 6.02607 10.6574 6.06659 10.6985 6.01942ZM9.12679 4.00612C9.12908 4.00068 9.09333 3.95402 9.08922 3.95685C8.99778 4.00056 9.06774 4.09266 9.12679 4.00612ZM11.8295 7.17842C11.8923 7.16069 11.9174 7.18022 11.8728 7.244C11.8593 7.22134 11.8433 7.20092 11.8295 7.17842Z" fill="white"/>
<path id="Vector 8" d="M11.4772 11.4228C11.4901 11.3517 11.5438 11.2734 11.5949 11.2187C11.6108 11.2015 11.6363 11.2255 11.6487 11.2143C11.6728 11.1925 11.6695 11.1607 11.6958 11.1406C11.7047 11.1339 11.7471 11.1671 11.7554 11.1596C11.8003 11.1182 11.8104 11.0657 11.8453 11.0191C12.0162 10.7922 12.1621 10.5603 12.3261 10.3306C12.3801 10.2546 12.4793 10.1842 12.5128 10.0929C12.5167 10.0822 12.4743 10.063 12.4722 10.0592C12.4412 9.99976 12.5136 10.0592 12.5357 10.0477C12.6232 10.0018 12.6789 9.92548 12.7106 9.84739C12.724 9.8141 12.6287 9.79147 12.691 9.79133C12.6952 9.79128 12.7306 9.82624 12.7403 9.8213C12.7622 9.81007 12.7784 9.77125 12.7913 9.75963C12.8162 9.7374 12.8188 9.73275 12.8369 9.70812C12.8619 9.67474 12.9109 9.64802 12.9279 9.60558C12.9314 9.59638 12.8834 9.57725 12.8854 9.55987C12.8875 9.54248 12.9149 9.51214 12.9325 9.50807C12.9502 9.504 12.9785 9.53203 12.9872 9.53542C13.0603 9.56467 13.0028 9.4648 13.0044 9.4583C13.0343 9.3434 13.139 9.30512 13.2012 9.22432C13.2485 9.16269 13.2844 9.08482 13.3319 9.02922C13.3894 8.96222 13.4565 8.92202 13.5067 8.85239C13.512 8.84521 13.4596 8.81623 13.4659 8.80738C13.5335 8.7129 13.6123 8.62687 13.7162 8.56347C13.7267 8.55714 13.7571 8.60156 13.77 8.59721C13.8482 8.56922 13.9974 8.54945 13.8514 8.37256C13.8894 8.3407 13.9326 8.30306 13.9953 8.29889C14.0356 8.2963 14.0615 8.3532 14.065 8.31151C14.0658 8.30214 14.0215 8.27819 14.0256 8.26652C14.0424 8.21825 14.0883 8.1884 14.0998 8.13502C14.102 8.1241 14.0664 8.09773 14.062 8.09048C14.0278 8.03079 14.1336 8.0707 14.145 8.06915C14.2299 8.05794 14.2438 8.00598 14.2822 7.96244C14.2912 7.95217 14.2353 7.92636 14.2424 7.91511C14.265 7.88018 14.2923 7.84743 14.3246 7.81899C14.4334 7.65855 14.629 7.6873 14.7628 7.82765C14.7762 7.852 14.7848 7.87463 14.7945 7.90438C14.7978 7.91842 14.7503 7.93981 14.7499 7.94817C14.7491 7.98552 14.8297 7.9334 14.8343 7.97322C14.8344 7.98025 14.7982 8.00425 14.7951 8.00797C14.7458 8.06638 14.8389 8.01374 14.8435 8.01592C14.9056 8.04409 14.8415 8.14186 14.8882 8.17682C14.8941 8.18112 14.9279 8.13515 14.9416 8.14935C15.0334 8.24343 15.1024 8.35764 15.1469 8.48734C15.1541 8.50779 15.1125 8.52127 15.1093 8.52539C15.0595 8.59089 15.1515 8.53604 15.1584 8.53841C15.2109 8.55942 15.1692 8.6514 15.291 8.60204C15.3874 8.79935 15.5747 8.92642 15.6148 9.16514C15.6154 9.16807 15.5709 9.19612 15.5723 9.20183C15.5883 9.27108 15.6454 9.21174 15.7508 9.1856C15.7773 9.17907 15.7023 9.27881 15.6971 9.28655C15.678 9.3149 15.6093 9.35337 15.6065 9.36007C15.5855 9.41373 15.7878 9.25423 15.8115 9.28499C15.8119 9.28623 15.7711 9.31099 15.7694 9.31647C15.7638 9.33356 15.785 9.33014 15.7781 9.34802C15.7621 9.38923 15.6676 9.47183 15.747 9.4556C15.7572 9.45342 15.8691 9.35907 15.8852 9.39152C15.8915 9.40449 15.932 9.45323 15.9354 9.47324C15.9387 9.49317 15.8939 9.51205 15.893 9.5143C15.8729 9.59046 15.8413 9.5916 15.7823 9.66626C15.7235 9.74062 15.8936 9.60237 15.9188 9.59509C15.944 9.58786 15.9241 9.64641 15.9151 9.66401C15.906 9.6816 15.8758 9.69138 15.8724 9.70351C15.8503 9.78343 15.9721 9.65492 16.0098 9.64694C16.0989 9.62796 15.9884 9.75095 15.9977 9.78934C16.0002 9.79972 16.0248 9.77091 16.0328 9.77573C16.0645 9.79537 16.0364 9.84209 16.0967 9.84445C16.1065 9.84484 16.203 9.81032 16.1584 9.86992C16.1519 9.87847 16.1148 9.89657 16.1163 9.91359C16.1187 9.93906 16.1354 9.97557 16.1604 9.98602C16.1789 9.99371 16.2199 9.93745 16.2166 9.96737C16.2151 9.9807 16.1732 9.99007 16.173 10.0131C16.1727 10.036 16.2026 10.0723 16.2141 10.0852C16.2257 10.0981 16.2602 10.0599 16.2637 10.059C16.2844 10.0539 16.324 10.0656 16.3258 10.068C16.4211 10.1828 16.4375 10.3452 16.5479 10.4438C16.5566 10.4516 16.5944 10.4132 16.5962 10.4141C16.6377 10.4318 16.5061 10.493 16.4848 10.5436C16.5687 10.4749 16.5628 10.4996 16.589 10.5145C16.6017 10.5216 16.6307 10.4904 16.6349 10.4888C16.6976 10.466 16.6404 10.5268 16.6292 10.5398C16.5878 10.5877 16.6546 10.5547 16.627 10.5868C16.5997 10.6187 16.5388 10.6393 16.5554 10.6598C16.5908 10.6422 16.6596 10.5654 16.6848 10.5714C16.78 10.5941 16.8023 10.755 16.8326 10.8086C16.8627 10.8621 16.8803 10.8734 16.8905 10.9102C16.909 10.9765 16.9547 10.9124 17.0061 10.9234C17.0576 10.9344 16.8985 11.0305 16.8702 11.0591C16.8419 11.0875 16.8782 11.0677 16.865 11.0865C16.8518 11.1052 16.8212 11.1095 16.8245 11.1275C16.8278 11.1455 16.9112 11.1386 16.9479 11.1182C17.0256 11.075 17.0871 11.0031 17.0875 11.0574C17.0874 11.0606 17.0438 11.0834 17.0456 11.094C17.0617 11.1773 17.1074 11.2417 17.1264 11.322C17.129 11.3331 17.0802 11.3583 17.0812 11.3651C17.0914 11.4361 17.1508 11.3634 17.2527 11.3302C17.1403 11.4051 17.086 11.4701 17.1143 11.509C17.1313 11.5325 17.1753 11.4931 17.2197 11.483C17.2331 11.48 17.213 11.5206 17.2374 11.5069C17.3171 11.4622 17.3865 11.386 17.384 11.4497C17.3837 11.4526 17.34 11.4769 17.3421 11.4847C17.3554 11.5351 17.4345 11.4827 17.4751 11.5176C17.5072 11.5455 17.5052 11.6389 17.5257 11.6819C17.4038 11.7721 17.458 11.7865 17.5523 11.7381C17.5671 11.765 17.5911 11.7872 17.5972 11.8194C17.5993 11.8306 17.5602 11.8515 17.5571 11.8554C17.5094 11.9157 17.5988 11.8655 17.606 11.8684C17.6799 11.9027 17.6528 11.9951 17.7533 12.004C17.7569 12.0042 17.8437 11.9444 17.7927 12.0047C17.7891 12.0088 17.7375 12.0197 17.7534 12.0472C17.7691 12.0745 17.7607 12.1578 17.8262 12.1642C17.8421 12.1658 17.9269 12.1367 17.8862 12.1939C17.8806 12.2016 17.8545 12.2171 17.8435 12.2304C17.8085 12.2731 17.8984 12.2156 17.8351 12.2821C17.7721 12.3489 17.7363 12.4144 17.8135 12.4138C17.8158 12.4139 17.89 12.3723 17.8974 12.3846C17.9092 12.4042 17.9142 12.4405 17.9286 12.459C17.9355 12.4679 17.9733 12.431 17.9753 12.432C18.0442 12.4759 18.0357 12.5431 18.0691 12.6228C18.075 12.6372 18.158 12.6295 18.1293 12.6859C18.0979 12.7477 17.8717 12.8741 17.963 12.8951C17.9993 12.9032 18.2848 12.7409 18.1798 12.8839C18.2744 12.9425 18.2574 13.0665 18.3668 13.1161C18.3716 13.1183 18.454 13.0769 18.4592 13.0863C18.4668 13.1003 18.4372 13.1321 18.4414 13.1427C18.457 13.1865 18.5147 13.2046 18.5367 13.2454C18.5452 13.2609 18.5057 13.2814 18.5157 13.2998C18.5257 13.318 18.5809 13.2957 18.5737 13.334C18.5674 13.3622 18.4843 13.4498 18.4894 13.4813C18.5858 13.4152 18.5954 13.4332 18.6404 13.4438C18.6491 13.4458 18.6784 13.4167 18.6843 13.4165C18.7087 13.415 18.6877 13.4438 18.7131 13.4404C18.7193 13.4397 18.7522 13.4171 18.759 13.4152C18.8184 13.3977 18.7638 13.4768 18.7548 13.4912C18.7192 13.5442 18.768 13.5238 18.7585 13.5513C18.7488 13.5787 18.7103 13.5739 18.7098 13.5983C18.7083 13.6484 18.7419 13.687 18.7647 13.7251C18.7734 13.7394 18.8118 13.7007 18.8141 13.7021C18.845 13.7247 18.8119 13.7782 18.9148 13.7426C18.6953 13.9091 18.9503 13.7489 18.9275 13.8178C18.9255 13.8232 18.8156 13.8922 18.7929 13.8911C18.7701 13.8901 18.7939 13.851 18.7572 13.8484C18.7488 13.8479 18.6295 13.8867 18.6226 13.8897C18.5603 13.899 18.7205 13.7899 18.7287 13.7829C18.8159 13.7061 18.6869 13.7483 18.6741 13.7455C18.6141 13.7299 18.622 13.6929 18.5773 13.6798C18.5488 13.6719 18.4426 13.7416 18.4356 13.7245C18.4107 13.6654 18.5487 13.5536 18.3903 13.5949C18.3566 13.6038 18.2499 13.6934 18.3145 13.5953C18.3188 13.5896 18.3806 13.5038 18.3193 13.5264C18.3115 13.5292 18.2785 13.5525 18.2741 13.5521C18.245 13.5491 18.2638 13.5199 18.2388 13.5112C18.2137 13.5025 18.1797 13.4942 18.176 13.4654C18.1737 13.4481 18.2234 13.388 18.234 13.3711C18.2643 13.322 18.1818 13.3565 18.2268 13.3088C18.2721 13.2609 18.3662 13.2237 18.381 13.1725C18.2949 13.2328 18.2056 13.2933 18.1186 13.3533C18.0804 13.2937 18.0608 13.2085 18.0163 13.1551C18.0105 13.1482 17.9702 13.1888 17.9627 13.1823C17.9315 13.1546 17.9427 13.1015 17.904 13.0756C17.8738 13.0556 17.8031 13.0602 17.7712 13.0421C17.856 12.9544 17.7928 12.9371 17.7792 12.9001C17.7745 12.8872 17.8009 12.8689 17.8037 12.855C17.8137 12.8032 17.738 12.8797 17.7187 12.8816C17.6364 12.8901 17.827 12.7433 17.7939 12.7085C17.7922 12.7066 17.6705 12.7574 17.6615 12.7586C17.6032 12.7674 17.6947 12.7285 17.692 12.709C17.6872 12.6733 17.6987 12.6373 17.6462 12.6294C17.6307 12.6272 17.5508 12.6535 17.5877 12.5994C17.5925 12.5924 17.6275 12.5684 17.6281 12.5651C17.6366 12.5071 17.5294 12.5861 17.4796 12.5945C17.4298 12.6031 17.4825 12.5198 17.4995 12.4982C17.5432 12.4422 17.5316 12.4924 17.5376 12.4892C17.6091 12.4512 17.5826 12.4386 17.5762 12.4186C17.6793 12.3385 17.6563 12.3208 17.5691 12.3982C17.5596 12.4067 17.5786 12.4119 17.5762 12.4186C17.4629 12.481 17.4315 12.4662 17.5072 12.3674C17.5427 12.3211 17.6043 12.2943 17.556 12.2694C17.534 12.2581 17.4671 12.3186 17.4357 12.3176C17.3646 12.3157 17.3982 12.2204 17.3604 12.1919C17.3467 12.1815 17.3168 12.2238 17.3061 12.2178C17.2775 12.2018 17.2913 12.1585 17.258 12.1455C17.2549 12.1444 17.2177 12.1806 17.2115 12.1735C17.1634 12.1192 17.1541 12.0516 17.1103 11.9917C17.0893 11.9629 17.0281 11.9286 17.0102 11.8953C16.9791 11.8379 16.9922 11.7306 16.9445 11.6976C16.9137 11.676 16.8772 11.7132 16.84 11.7221C16.7678 11.7393 16.8335 11.624 16.8443 11.607C16.8447 11.6064 16.873 11.6238 16.8842 11.5947C16.9224 11.5539 16.8447 11.6071 16.8443 11.607C16.8511 11.5957 16.8237 11.54 16.8085 11.5361C16.8002 11.5341 16.7635 11.5664 16.7599 11.5648C16.6756 11.5257 16.6161 11.4674 16.5839 11.3869C16.5838 11.3851 16.6287 11.354 16.6279 11.3502C16.6182 11.2971 16.5463 11.3128 16.4907 11.305C16.435 11.2972 16.4266 11.264 16.4871 11.1886C16.4595 11.1718 16.4666 11.1124 16.4716 11.0775C16.4767 11.0425 16.3899 11.1039 16.3869 11.1035C16.2921 11.0898 16.3168 11.0217 16.2817 10.9597C16.2651 10.9301 16.2128 10.8867 16.1814 10.8647C16.1565 10.8473 16.1658 10.8184 16.1371 10.807C16.1332 10.8054 16.0977 10.8369 16.0956 10.8371C16.0326 10.8478 16.1334 10.7892 16.1461 10.7718C16.1925 10.7087 16.2161 10.6736 16.1651 10.6649C16.1533 10.6628 16.0054 10.7435 15.988 10.7368C15.9657 10.7279 16.018 10.6979 15.9934 10.6895C15.9913 10.6887 15.9623 10.7113 15.9555 10.6998C15.9238 10.6465 15.8992 10.5788 15.8573 10.5299C15.8517 10.5232 15.8121 10.5675 15.8032 10.5583C15.7613 10.5148 15.7245 10.463 15.7102 10.3992C15.707 10.3835 15.745 10.3659 15.7527 10.356C15.7995 10.2961 15.6981 10.3393 15.6938 10.337C15.5878 10.2828 15.617 10.1617 15.5132 10.1016C15.5074 10.0985 15.3887 10.1318 15.4544 10.0561C15.4588 10.051 15.5264 9.97411 15.4611 10.0018C15.4571 10.0036 15.4235 10.0449 15.4145 10.0244C15.4055 10.004 15.3572 9.99762 15.3842 9.9394C15.3925 9.92083 15.4581 9.84174 15.3773 9.86753C15.3717 9.8694 15.2015 9.94415 15.2909 9.85601C15.3057 9.84154 15.4119 9.76342 15.3377 9.77771C15.3234 9.78057 15.3072 9.80773 15.2823 9.80543C15.244 9.80202 15.2512 9.75339 15.1855 9.76417C15.174 9.76623 15.0886 9.80192 15.1305 9.74495C15.1371 9.73606 15.1755 9.71388 15.1732 9.70272C15.1622 9.64954 15.1081 9.62738 15.1029 9.57057C15.101 9.55052 15.1628 9.51412 15.1671 9.48844C15.1713 9.46259 15.1648 9.424 15.1272 9.42833C15.0896 9.4328 15.0124 9.51857 14.9877 9.50118C14.8802 9.42586 14.861 9.2917 14.793 9.18735C14.7833 9.17224 14.7601 9.20872 14.7435 9.18835C14.6812 9.11232 14.55 9.00422 14.5626 8.8793C14.5753 8.78257 14.6697 8.819 14.66 8.76034C14.6553 8.73222 14.5348 8.79187 14.5279 8.7898C14.4597 8.77026 14.4767 8.69676 14.4316 8.66751C14.4221 8.66134 14.3862 8.70225 14.3786 8.69666C14.3538 8.67971 14.349 8.63443 14.3268 8.61276C14.3166 8.603 14.2859 8.62996 14.2807 8.61811C14.2675 8.58952 14.2684 8.56249 14.2775 8.5117C14.2785 8.50729 14.3305 8.49161 14.3174 8.47153C14.2954 8.43833 14.3032 8.38661 14.2427 8.37215C14.226 8.3697 14.1513 8.4256 14.1883 8.36806C14.1961 8.35622 14.2887 8.29282 14.1909 8.32456C14.1805 8.32759 14.1252 8.34609 14.0982 8.34225L14.9683 8.35945C14.9683 8.37694 14.9585 8.38626 14.9283 8.37348C14.9069 8.36447 14.8255 8.31887 14.8269 8.33961C14.8273 8.34265 14.871 8.36863 14.8667 8.38128C14.8509 8.42556 14.8186 8.45569 14.8011 8.50104C14.7966 8.51305 14.8479 8.53262 14.8399 8.54943C14.818 8.59593 14.7696 8.63308 14.726 8.65992C14.7099 8.66967 14.6848 8.63265 14.6804 8.63064C14.6088 8.59779 14.6796 8.67306 14.6798 8.68216C14.6798 8.738 14.6226 8.73114 14.607 8.76974C14.6026 8.78031 14.6451 8.80573 14.6471 8.8102C14.6653 8.85482 14.6087 8.78561 14.5921 8.79033C14.5455 8.80338 14.5204 8.83962 14.4999 8.87396C14.4922 8.88691 14.5465 8.91037 14.5391 8.92156C14.4961 8.98851 14.4412 9.04621 14.3684 9.08526C14.3547 9.09242 14.3267 9.0577 14.3171 9.05364C14.2502 9.02502 14.3048 9.10857 14.3075 9.11958C14.3193 9.17032 14.2817 9.15532 14.2696 9.18135C14.2119 9.30825 14.0873 9.42151 13.9964 9.51058C13.8782 9.62669 13.7671 9.70175 13.6818 9.83269C13.6763 9.84094 13.7287 9.86799 13.7247 9.87553C13.67 9.97148 13.5882 10.0444 13.5388 10.1427C13.5346 10.1507 13.5869 10.1722 13.5818 10.1861C13.5717 10.2148 13.5483 10.2428 13.5169 10.2571C13.5017 10.264 13.474 10.2211 13.4595 10.2287C13.4255 10.2464 13.4018 10.274 13.3895 10.3077C13.3844 10.3221 13.4435 10.3354 13.4333 10.3516C13.3648 10.4624 13.3044 10.5731 13.1734 10.646C13.1645 10.651 13.0628 10.5976 13.0713 10.6257C13.0977 10.6435 13.1296 10.663 13.1583 10.6813C13.0754 10.8516 12.949 10.9937 12.8549 11.1596C12.8509 11.1666 12.9111 11.1826 12.9038 11.1962C12.8612 11.2754 12.8373 11.3601 12.7429 11.416C12.7335 11.4216 12.6396 11.3706 12.6422 11.4023C12.6427 11.408 12.6377 11.4512 12.6541 11.4706C12.6567 11.4734 12.7048 11.4882 12.7005 11.5006C12.6745 11.5727 12.6309 11.6398 12.5714 11.698C12.5617 11.7073 12.5187 11.6735 12.5114 11.6799C12.4603 11.725 12.469 11.8055 12.4014 11.8409C12.3556 11.8653 12.2772 11.8155 12.1855 11.8002C12.1726 11.7981 12.1607 11.8209 12.1118 11.8017C11.9887 11.7535 11.8605 11.6854 11.7288 11.6353C11.7004 11.6245 11.7166 11.6703 11.6573 11.6222C11.6534 11.6189 11.6411 11.5854 11.6208 11.5698C11.6067 11.5589 11.5544 11.5455 11.5377 11.5284C11.5211 11.5113 11.5662 11.5197 11.5484 11.4956C11.5303 11.4714 11.4718 11.4535 11.4772 11.4228ZM16.4936 10.9205C16.5204 10.8713 16.3694 10.9816 16.42 10.9743C16.4227 10.9739 16.4923 10.9229 16.4936 10.9205ZM18.1776 13.1295C18.2257 13.0553 18.117 13.112 18.0771 13.1655C18.0376 13.2193 18.163 13.1519 18.1776 13.1295ZM18.4084 13.3482C18.4409 13.2818 18.2217 13.4309 18.2872 13.4305C18.2909 13.4305 18.4065 13.352 18.4084 13.3482ZM12.2019 11.6971C12.1995 11.6964 12.19 11.7121 12.1921 11.7135C12.2428 11.7459 12.2616 11.7147 12.2019 11.6971ZM18.6375 13.5614C18.6597 13.5303 18.6094 13.5303 18.5798 13.566C18.5553 13.5936 18.6091 13.5987 18.6375 13.5614ZM15.9258 9.84552C15.9278 9.84353 15.9216 9.83131 15.9093 9.84108C15.8695 9.8726 15.8923 9.87881 15.9258 9.84552ZM18.92 13.9993C18.8866 13.926 19.0524 13.7756 19.0732 13.8585C19.0772 13.8737 18.9968 13.867 18.9898 13.8936C18.9775 13.9428 19.1065 13.89 19.0631 13.9592C19.0553 13.9722 18.9216 14.004 18.9197 13.9993C18.9198 13.9993 18.9199 13.9993 18.92 13.9993ZM16.6645 10.7742C16.6662 10.7724 16.6569 10.7562 16.6547 10.7574C16.6013 10.7853 16.62 10.8178 16.6645 10.7742ZM15.5447 9.15771C15.5483 9.15376 15.5266 9.11739 15.5215 9.11877C15.431 9.16023 15.4753 9.23482 15.5447 9.15771ZM17.5229 11.685C17.5827 11.6653 17.6028 11.6803 17.5523 11.738C17.5436 11.7197 17.532 11.7033 17.5229 11.685Z" fill="white"/>
</g>
<defs>
<clipPath id="clip0_0_4">
<rect width="20" height="20" fill="white"/>
</clipPath>
</defs>
</svg>
