<svg preserveAspectRatio="none" width="100%" height="100%" overflow="visible" style="display: block;" viewBox="0 0 31 31" fill="none" xmlns="http://www.w3.org/2000/svg">
<g id="&#232;&#175;&#173;&#233;&#159;&#179;icon">
<circle id="Ellipse 5" cx="15.5" cy="15.5" r="15.5" fill="var(--fill-0, #F9F9F9)"/>
<g id="Voice icon">
<path id="Union" d="M13.8809 9C14.2659 9 14.5781 9.31218 14.5781 9.69727V20.8535C14.5779 21.2384 14.2658 21.5508 13.8809 21.5508C13.496 21.5507 13.1838 21.2384 13.1836 20.8535V9.69727C13.1836 9.31222 13.4958 9.00006 13.8809 9ZM18.0645 11.7891C18.4495 11.7891 18.7617 12.1013 18.7617 12.4863V18.0635C18.7617 18.4485 18.4495 18.7607 18.0645 18.7607C17.6794 18.7607 17.3672 18.4486 17.3672 18.0635V12.4863C17.3672 12.1012 17.6794 11.7891 18.0645 11.7891ZM9.69727 13.1836C10.0823 13.1836 10.3945 13.4958 10.3945 13.8809V16.6699C10.3943 17.0548 10.0822 17.3672 9.69727 17.3672C9.3124 17.3671 9.00025 17.0547 9 16.6699V13.8809C9 13.4958 9.31224 13.1837 9.69727 13.1836ZM22.248 13.1836C22.6331 13.1836 22.9453 13.4958 22.9453 13.8809V16.6699C22.9451 17.0548 22.633 17.3672 22.248 17.3672C21.8631 17.3672 21.551 17.0548 21.5508 16.6699V13.8809C21.5508 13.4958 21.863 13.1836 22.248 13.1836Z" fill="var(--fill-0, #212121)"/>
</g>
</g>
</svg>
